<svg width="26" height="24" viewBox="0 0 26 24" fill="none" xmlns="http://www.w3.org/2000/svg">
<g clip-path="url(#clip0_61_147)">
<path d="M13.1323 0C6.35735 0 0.907349 5.5 0.907349 12.3C0.907349 17.75 4.40735 22.35 9.25735 23.975C9.85735 24.1 10.0823 23.7 10.0823 23.375C10.0823 23.1 10.0573 22.1 10.0573 21.1C6.65735 21.825 5.95735 19.625 5.95735 19.625C5.40735 18.2 4.60735 17.825 4.60735 17.825C3.50735 17.075 4.68235 17.075 4.68235 17.075C5.90735 17.15 6.55735 18.35 6.55735 18.35C7.65735 20.225 9.40735 19.7 10.1073 19.375C10.2073 18.575 10.5323 18.025 10.8823 17.725C8.18235 17.45 5.33235 16.375 5.33235 11.65C5.33235 10.3 5.80735 9.2 6.58235 8.35C6.45735 8.05 6.03235 6.775 6.70735 5.1C6.70735 5.1 7.73235 4.775 10.0573 6.375C11.0323 6.1 12.0823 5.975 13.1073 5.975C14.1323 5.975 15.1823 6.125 16.1573 6.375C18.4823 4.775 19.5073 5.1 19.5073 5.1C20.1823 6.8 19.7573 8.05 19.6323 8.35C20.4323 9.2 20.8823 10.3 20.8823 11.65C20.8823 16.375 18.0323 17.425 15.3073 17.725C15.7573 18.1 16.1323 18.85 16.1323 20C16.1323 21.65 16.1073 22.975 16.1073 23.375C16.1073 23.7 16.3323 24.1 16.9323 23.975C21.8073 22.35 25.3073 17.75 25.3073 12.3C25.3323 5.5 19.8573 0 13.1323 0Z" fill="white"/>
</g>
<defs>
<clipPath id="clip0_61_147">
<rect width="24.4" height="24" fill="white" transform="translate(0.907349)"/>
</clipPath>
</defs>
</svg>
