<svg width="191" height="80" viewBox="0 0 191 80" fill="none" xmlns="http://www.w3.org/2000/svg">
<rect x="2" y="17" width="173" height="55" rx="8" stroke="white" stroke-width="4"/>
<path d="M30.272 38.288C28.1173 38.288 27.04 37.36 27.04 35.504C27.04 34.5013 27.3067 33.808 27.84 33.424C28.3947 33.0187 29.2053 32.816 30.272 32.816C31.4027 32.816 32.224 33.0187 32.736 33.424C33.2693 33.808 33.536 34.5013 33.536 35.504C33.536 37.36 32.448 38.288 30.272 38.288ZM25.888 59.632C24.5227 59.632 23.4453 59.472 22.656 59.152C21.8453 58.832 21.44 58.5653 21.44 58.352L22.72 55.472C22.976 55.536 23.3493 55.6 23.84 55.664C24.3093 55.7493 24.8107 55.792 25.344 55.792C25.92 55.792 26.3787 55.6533 26.72 55.376C27.0827 55.0987 27.264 54.5333 27.264 53.68V39.664H33.184V54.32C33.184 55.6 32.9173 56.624 32.384 57.392C31.8507 58.1813 31.1253 58.7467 30.208 59.088C29.2907 59.4507 28.2347 59.632 27.04 59.632H25.888ZM37.3888 54V39.664H42.0288L42.8288 40.048C43.4474 39.9413 44.1408 39.856 44.9088 39.792C45.6981 39.7067 46.5408 39.664 47.4368 39.664H49.1648C49.7834 39.664 50.3808 39.7493 50.9568 39.92C51.5328 40.0693 51.9594 40.2933 52.2368 40.592C52.5994 40.4 52.9941 40.24 53.4208 40.112C53.8474 39.9627 54.3914 39.856 55.0528 39.792C55.7354 39.7067 56.5994 39.664 57.6448 39.664H59.2448C60.3114 39.664 61.1328 39.8133 61.7088 40.112C62.2848 40.4107 62.6901 40.784 62.9248 41.232C63.1808 41.68 63.3301 42.1387 63.3728 42.608C63.4368 43.056 63.4688 43.44 63.4688 43.76V54H57.6128V44.976C57.6128 44.1227 57.1008 43.696 56.0768 43.696H54.2847C53.9434 43.696 53.7088 43.7387 53.5808 43.824C53.4528 43.9093 53.3888 44.1013 53.3888 44.4V54H47.4368V44.976C47.4368 44.1227 46.9248 43.696 45.9008 43.696H44.2688C43.8634 43.696 43.5968 43.7387 43.4688 43.824C43.3621 43.888 43.3088 44.08 43.3088 44.4V54H37.3888ZM68.4828 54V43.696H65.8588V39.696H68.4828V37.488C68.4828 34.3307 70.2108 32.752 73.6667 32.752H75.8748C78.4348 32.752 80.2694 32.8693 81.3787 33.104C82.5094 33.3387 83.0748 33.5413 83.0748 33.712L82.1147 37.424C81.7521 37.2747 81.1014 37.136 80.1628 37.008C79.2241 36.8587 78.0934 36.784 76.7708 36.784H75.8428C75.3094 36.784 74.9148 36.88 74.6588 37.072C74.4241 37.264 74.3068 37.5947 74.3068 38.064V39.696H80.3228V43.696H74.3068V54H68.4828ZM87.6523 54C86.2443 54 85.1883 53.7973 84.4843 53.392C83.7803 52.9867 83.3109 52.432 83.0763 51.728C82.8629 51.0027 82.7563 50.1707 82.7563 49.232V44.4C82.7563 43.504 82.8736 42.704 83.1083 42C83.3429 41.2747 83.8016 40.7093 84.4843 40.304C85.1883 39.8773 86.2443 39.664 87.6523 39.664H96.5483C97.9563 39.664 99.0016 39.8773 99.6843 40.304C100.388 40.7093 100.847 41.2747 101.06 42C101.295 42.704 101.412 43.504 101.412 44.4V49.232C101.412 50.1707 101.295 51.0027 101.06 51.728C100.847 52.432 100.388 52.9867 99.6843 53.392C99.0016 53.7973 97.9563 54 96.5483 54H87.6523ZM90.2123 49.968H94.0203C95.0443 49.968 95.5456 49.5413 95.5243 48.688V44.976C95.5243 44.5493 95.4069 44.2293 95.1723 44.016C94.9589 43.8027 94.5749 43.696 94.0203 43.696H90.2443C89.6896 43.696 89.2949 43.8027 89.0603 44.016C88.8256 44.2293 88.7083 44.5493 88.7083 44.976V48.688C88.6869 49.5413 89.1883 49.968 90.2123 49.968ZM104.92 54V39.664H109.464L110.68 40.304C111.661 39.664 112.963 39.344 114.584 39.344C115.651 39.344 116.589 39.4613 117.4 39.696C118.211 39.9093 118.861 40.144 119.352 40.4C119.864 40.656 120.184 40.8373 120.312 40.944L118.712 45.104C118.499 44.9547 118.093 44.752 117.496 44.496C116.92 44.24 116.237 44.0053 115.448 43.792C114.659 43.5573 113.827 43.44 112.952 43.44H112.6C112.003 43.44 111.544 43.5467 111.224 43.76C110.904 43.952 110.744 44.3893 110.744 45.072V54H104.92ZM128.113 54C126.492 54 125.382 53.6587 124.785 52.976C124.188 52.2933 123.889 51.2693 123.889 49.904V43.696H121.265V39.664H122.609C122.972 39.664 123.26 39.6 123.473 39.472C123.708 39.3227 123.857 39.0667 123.921 38.704L124.529 35.28H129.777V39.664H135.121V43.696H129.777V48.656C129.777 49.1893 129.905 49.5413 130.161 49.712C130.417 49.8827 130.801 49.968 131.313 49.968H134.513L135.153 53.68C134.705 53.744 134.022 53.8187 133.105 53.904C132.188 53.968 131.185 54 130.097 54H128.113ZM143.269 54C141.648 54 140.539 53.6587 139.941 52.976C139.344 52.2933 139.045 51.2693 139.045 49.904V43.696H136.421V39.664H137.765C138.128 39.664 138.416 39.6 138.629 39.472C138.864 39.3227 139.013 39.0667 139.077 38.704L139.685 35.28H144.933V39.664H150.277V43.696H144.933V48.656C144.933 49.1893 145.061 49.5413 145.317 49.712C145.573 49.8827 145.957 49.968 146.469 49.968H149.669L150.309 53.68C149.861 53.744 149.179 53.8187 148.261 53.904C147.344 53.968 146.341 54 145.253 54H143.269Z" fill="white"/>
</svg>
