<svg width="50" height="43" viewBox="0 0 50 43" fill="none" xmlns="http://www.w3.org/2000/svg">
<path d="M10.4167 37.5H39.5833C41.8845 37.5 43.75 35.9011 43.75 33.9286V8.92861C43.75 6.95616 41.8845 5.35718 39.5833 5.35718H10.4167C8.11548 5.35718 6.25 6.95616 6.25 8.92861V33.9286C6.25 35.9011 8.11548 37.5 10.4167 37.5ZM10.4167 37.5L33.3333 17.8572L43.75 26.7857M20.8333 15.1786C20.8333 16.6579 19.4342 17.8572 17.7083 17.8572C15.9824 17.8572 14.5833 16.6579 14.5833 15.1786C14.5833 13.6993 15.9824 12.5 17.7083 12.5C19.4342 12.5 20.8333 13.6993 20.8333 15.1786Z" stroke="black" stroke-width="4" stroke-linecap="round" stroke-linejoin="round"/>
</svg>
